#!OML:ASF F:\VICON\USERDATA\INSTALL\Justin_Nancy\Justin_Nancy.ASF
:FULLY-SPECIFIED
:DEGREES
174
root -0.532047 17.9142 38.4533 3.43123 3.53726 -2.59833
lowerback 4.58688 3.23053 5.86991
upperback -2.22543 4.78994 1.95366
thorax -4.57544 2.22637 -1.64311
lowerneck -23.7962 -4.38483 -10.2309
upperneck 16.3828 -4.37555 8.42497
head 9.4941 -1.73002 3.9712
rclavicle 1.70458e-014 -7.95139e-015
rhumerus -41.9423 12.9632 -89.5489
rradius 126.953
rwrist -14.8819
rhand -8.3308 24.4087
rfingers 7.12502
rthumb 17.5905 -4.81558
lclavicle 1.70458e-014 -7.95139e-015
lhumerus -63.5434 -1.82945 89.8265
lradius 115.412
lwrist 30.1587
lhand -15.8601 14.3391
lfingers 7.12502
lthumb 10.3351 44.0652
rfemur 11.1486 7.32873 30.649
rtibia 44.0046
rfoot 17.4122 -4.81252
rtoes 6.97399
lfemur -27.7383 -2.41045 -18.7666
ltibia 24.58
lfoot 3.83511 -7.31263
ltoes -14.1617
175
root -0.545072 17.8305 38.8187 2.84422 3.65933 -2.43046
lowerback 5.51434 3.08697 5.59049
upperback -2.25739 4.65193 1.91771
thorax -5.16337 2.14692 -1.5777
lowerneck -23.2519 -4.24409 -10.1427
upperneck 15.7862 -4.26453 8.55993
head 9.18226 -1.66657 4.01201
rclavicle -5.25599e-014 -2.8625e-014
rhumerus -42.3334 13.0595 -89.811
rradius 126.237
rwrist -14.8441
rhand -8.66181 24.1471
rfingers 7.12502
rthumb 17.272 -5.10538
lclavicle -5.25599e-014 -2.8625e-014
lhumerus -63.0345 -1.89399 89.6099
lradius 115.017
lwrist 30.2598
lhand -16.2106 13.7567
lfingers 7.12502
lthumb 9.997 43.4993
rfemur 10.3226 6.97613 30.3535
rtibia 47.6098
rfoot 16.9962 -4.80133
rtoes 4.80181
lfemur -26.9343 -1.69762 -19.311
ltibia 24.3434
lfoot 4.51451 -8.50683
ltoes -13.7327
176
root -0.563996 17.7546 39.1888 2.25535 3.81165 -2.28061
lowerback 6.11171 2.97177 5.24935
upperback -2.02059 4.5031 1.92067
thorax -5.28826 2.08381 -1.40307
lowerneck -23.043 -4.31212 -10.1569
upperneck 15.4165 -4.39447 8.74896
head 9.03746 -1.71028 4.05582
rclavicle -7.11525e-014 -2.22639e-014
rhumerus -42.5861 12.4802 -90.0364
rradius 125.596
rwrist -14.6115
rhand -8.62799 23.9401
rfingers 7.12502
rthumb 17.3045 -5.30947
lclavicle -7.11525e-014 -2.22639e-014
lhumerus -62.0388 -2.04978 89.5151
lradius 114.61
lwrist 30.3944
lhand -16.7616 13.8155
lfingers 7.12502
lthumb 9.46541 43.583
rfemur 9.43447 6.65992 30.1131
rtibia 51.1848
rfoot 17.021 -4.93596
rtoes 3.98971
lfemur -26.0186 -1.06928 -19.7633
ltibia 24.3575
lfoot 5.16734 -9.56635
ltoes -10.4513
177
root -0.583795 17.6786 39.5702 1.84186 4.04611 -1.50002
lowerback 6.42961 2.88172 4.21704
upperback -1.64711 4.29427 1.80976
thorax -5.15089 2.02028 -0.934967
lowerneck -23.407 -4.46863 -10.2137
upperneck 15.212 -4.56334 8.85198
head 9.05084 -1.77212 4.07227
rclavicle -1.73937e-015 -9.54166e-015
rhumerus -42.8138 11.8663 -90.1471
rradius 125.066
rwrist -14.2968
rhand -8.71671 23.7253
rfingers 7.12502
rthumb 17.2191 -5.53182
lclavicle -1.73937e-015 -9.54166e-015
lhumerus -60.7622 -2.28171 89.5662
lradius 114.316
lwrist 30.3193
lhand -16.909 13.8958
lfingers 7.12502
lthumb 9.32314 43.6697
rfemur 8.5191 6.19314 29.0563
rtibia 54.6315
rfoot 17.0737 -5.10628
rtoes 4.16722
lfemur -25.2456 -0.648429 -20.8829
ltibia 24.9253
lfoot 4.89352 -10.7004
ltoes -2.97618
178
root -0.598882 17.581 39.958 1.47721 4.35809 -0.877502
lowerback 6.47816 2.75079 3.35584
upperback -1.15372 4.02797 1.76869
thorax -4.72675 1.92686 -0.462073
lowerneck -23.9987 -4.57893 -10.3212
upperneck 15.129 -4.63679 8.96721
head 9.13637 -1.78599 4.11755
rclavicle 6.31141e-015 -1.51076e-014
rhumerus -42.6224 11.7591 -89.9497
rradius 124.168
rwrist -14.1294
rhand -9.16768 23.3583
rfingers 7.12502
rthumb 16.785 -5.93613
lclavicle 6.31141e-015 -1.51076e-014
lhumerus -59.3197 -2.62465 89.6395
lradius 114.073
lwrist 30.1262
lhand -17.4079 14.1446
lfingers 7.12502
lthumb 8.84178 43.9394
rfemur 7.60827 5.44587 27.9953
rtibia 57.9618
rfoot 16.6951 -5.36898
rtoes 2.62113
lfemur -24.6252 -0.246122 -21.8298
ltibia 26.0534
lfoot 2.91766 -12.3258
ltoes 1.49557
179
root -0.610445 17.4764 40.3382 0.90486 4.594 -1.13191
lowerback 6.99919 2.62742 3.43615
upperback -0.862714 3.89342 1.95502
thorax -4.72933 1.86223 -0.319887
lowerneck -24.1056 -4.51371 -10.3855
upperneck 15.0995 -4.51607 8.98572
head 9.13343 -1.72899 4.15271
rclavicle 2.56184e-014 1.03368e-014
rhumerus -42.6421 11.4544 -89.7409
rradius 123.068
rwrist -14.0539
rhand -9.58603 23.2027
rfingers 7.12502
rthumb 16.3823 -6.12548
lclavicle 2.56184e-014 1.03368e-014
lhumerus -58.0463 -2.94832 89.7669
lradius 113.783
lwrist 29.9587
lhand -17.5883 14.4479
lfingers 7.12502
lthumb 8.66761 44.2499
rfemur 6.69543 4.66915 27.8473
rtibia 61.2366
rfoot 16.198 -5.83951
rtoes 1.26357
lfemur -24.1173 0.00800358 -21.7168
ltibia 27.9763
lfoot -0.244919 -13.5617
ltoes 0.34243
180
root -0.609794 17.3658 40.7062 0.485667 5.11266 -1.06235
lowerback 7.55608 2.39167 3.431
upperback -0.722568 3.60013 1.9305
thorax -4.904 1.71427 -0.334725
lowerneck -24.0413 -4.29602 -10.0876
upperneck 15.0483 -4.27701 8.7721
head 9.06669 -1.62453 4.06332
rclavicle 4.73356e-014 2.62396e-014
rhumerus -42.6867 10.9064 -89.8001
rradius 121.87
rwrist -13.8524
rhand -9.87954 22.8842
rfingers 7.12502
rthumb 16.0996 -6.46704
lclavicle 4.73356e-014 2.62396e-014
lhumerus -56.8617 -3.32196 89.757
lradius 113.442
lwrist 29.7633
lhand -17.5937 14.2798
lfingers 7.12502
lthumb 8.66239 44.0821
rfemur 5.51087 3.47786 27.0684
rtibia 64.5147
rfoot 15.7032 -5.9612
rtoes 0.976789
lfemur -23.8968 -0.584311 -21.932
ltibia 30.5032
lfoot -2.50387 -13.028
ltoes 4.21373
181
root -0.611532 17.2295 41.0583 0.10017 5.67486 -0.773592
lowerback 7.88051 2.07199 3.06504
upperback -0.382266 3.14205 1.91511
thorax -4.76177 1.50175 -0.101521
lowerneck -24.1091 -4.07729 -9.70778
upperneck 14.8273 -4.03423 8.52271
head 8.96196 -1.51377 3.94539
rclavicle 3.23522e-014 -4.77083e-015
rhumerus -42.4902 10.5992 -89.9243
rradius 120.712
rwrist -13.5639
rhand -10.0502 22.3816
rfingers 7.12502
rthumb 15.9353 -6.98287
lclavicle 3.23522e-014 -4.77083e-015
lhumerus -55.1894 -3.37768 89.7063
lradius 112.984
lwrist 29.5569
lhand -17.2694 13.8351
lfingers 7.12502
lthumb 8.97541 43.6242
rfemur 4.22529 2.16051 25.9993
rtibia 67.9112
rfoot 15.1212 -5.87443
rtoes -0.180244
lfemur -23.2416 -1.6135 -22.3484
ltibia 33.1796
lfoot -6.24183 -12.0824
ltoes 1.21544
182
root -0.613157 17.1235 41.4226 -0.314233 5.94286 -0.364197
lowerback 8.20867 1.88223 2.53319
upperback 0.0644395 2.83673 1.89932
thorax -4.51085 1.36895 0.21063
lowerneck -24.3493 -3.97355 -9.50407
upperneck 14.6642 -3.8803 8.28942
head 8.92045 -1.44989 3.84984
rclavicle 2.99171e-014 -1.03368e-014
rhumerus -42.6346 10.1521 -90.0872
rradius 119.89
rwrist -13.1413
rhand -10.2684 21.983
rfingers 7.12502
rthumb 15.7252 -7.39812
lclavicle 2.99171e-014 -1.03368e-014
lhumerus -53.2924 -3.59642 89.7879
lradius 112.561
lwrist 29.5219
lhand -17.4255 13.9808
lfingers 7.12502
lthumb 8.82475 43.7763
rfemur 3.0647 1.01738 24.7279
rtibia 71.1855
rfoot 14.4377 -5.73147
rtoes -1.35489
lfemur -22.5651 -2.73677 -22.8358
ltibia 35.4976
lfoot -8.94707 -10.5227
ltoes 2.28004
183
root -0.615023 17.0368 41.786 -0.534535 5.99035 -0.0836491
lowerback 9.07666 1.80934 2.28546
upperback -0.0703073 2.74565 1.76893
thorax -5.14595 1.31933 0.191897
lowerneck -24.1922 -3.96362 -9.50026
upperneck 14.8814 -3.90782 8.34934
head 8.97336 -1.45997 3.86985
rclavicle 4.19933e-014 1.59028e-015
rhumerus -43.7052 9.16894 -90.4873
rradius 119.149
rwrist -12.663
rhand -10.178 22.2644
rfingers 7.12502
rthumb 15.8122 -7.10985
lclavicle 4.19933e-014 1.59028e-015
lhumerus -52.1995 -4.11684 89.9011
lradius 112.243
lwrist 29.7269
lhand -17.7612 13.8411
lfingers 7.12502
lthumb 8.50075 43.65
rfemur 1.45378 0.136694 23.6117
rtibia 74.3821
rfoot 13.9836 -5.50542
rtoes -2.61204
lfemur -21.9857 -3.5771 -23.2604
ltibia 37.3901
lfoot -11.4255 -8.35148
ltoes 3.26305
184
root -0.619698 16.9375 42.1457 -0.721434 5.97387 0.585158
lowerback 9.82857 1.72647 1.54056
upperback -0.162757 2.56845 1.5754
thorax -5.69158 1.24316 0.405389
lowerneck -24.3795 -3.88887 -9.55352
upperneck 15.4252 -3.84646 8.56646
head 9.19436 -1.40785 3.97507
rclavicle 3.72721e-014 7.95139e-016
rhumerus -44.7045 8.27216 -90.8492
rradius 118.366
rwrist -12.2461
rhand -10.1462 22.4657
rfingers 7.12502
rthumb 15.8428 -6.90607
lclavicle 3.72721e-014 7.95139e-016
lhumerus -50.8661 -4.56876 90.0003
lradius 111.783
lwrist 30.2893
lhand -18.3843 13.7098
lfingers 7.12502
lthumb 7.89943 43.5422
rfemur -0.362287 -0.694801 22.0153
rtibia 77.5592
rfoot 13.5478 -5.19559
rtoes -3.88314
lfemur -20.9003 -3.98178 -24.2232
ltibia 38.7059
lfoot -13.8673 -6.09556
ltoes 0.297438
185
root -0.622266 16.8388 42.5067 -0.752053 5.89272 1.87271
lowerback 10.3307 1.7186 0.150815
upperback -0.198324 2.38362 1.25173
thorax -6.05479 1.18618 0.858929
lowerneck -24.8819 -3.64156 -9.52766
upperneck 16.1354 -3.54668 8.7387
head 9.5018 -1.23846 4.09447
rclavicle -3.47873e-015 2.38542e-015
rhumerus -45.5823 7.45301 -91.0305
rradius 117.486
rwrist -11.9834
rhand -9.88241 22.5521
rfingers 7.12502
rthumb 16.0969 -6.79934
lclavicle -3.47873e-015 2.38542e-015
lhumerus -49.206 -5.11233 90.0306
lradius 111.191
lwrist 31.1842
lhand -18.7209 13.8987
lfingers 7.12502
lthumb 7.57458 43.7431
rfemur -2.22225 -1.65549 19.5107
rtibia 80.6411
rfoot 12.7635 -4.56286
rtoes -5.0462
lfemur -19.7507 -4.3329 -25.8442
ltibia 39.6071
lfoot -15.4763 -4.33168
ltoes -1.83582
186
root -0.630862 16.7534 42.8489 -0.578113 5.58623 3.22378
lowerback 10.5819 1.78932 -1.3605
upperback -0.0706628 2.27153 0.936502
thorax -6.10653 1.17143 1.391
lowerneck -25.0648 -3.64077 -9.59471
upperneck 16.0335 -3.49485 8.72339
head 9.49268 -1.21628 4.10653
rclavicle 9.14409e-015 2.38542e-015
rhumerus -45.9734 6.74278 -91.1197
rradius 116.456
rwrist -11.7373
rhand -9.92055 22.6406
rfingers 7.12502
rthumb 16.0602 -6.7138
lclavicle 9.14409e-015 2.38542e-015
lhumerus -47.1145 -5.46333 90.0085
lradius 110.554
lwrist 32.084
lhand -18.5927 13.8331
lfingers 7.12502
lthumb 7.69825 43.673
rfemur -4.61408 -2.26774 17.1081
rtibia 83.6031
rfoot 11.9998 -4.15576
rtoes -4.59533
lfemur -19.118 -4.66681 -27.3903
ltibia 40.4597
lfoot -16.5281 -2.79887
ltoes -2.01008
